<mxfile host="app.diagrams.net" modified="2020-10-30T13:38:25.036Z" agent="5.0 (Windows NT 10.0; Win64; x64) AppleWebKit/537.36 (KHTML, like Gecko) Chrome/85.0.4183.121 Safari/537.36 OPR/71.0.3770.302" etag="ce9h4mtMfoEm8Gp8KXV8" version="13.8.8" type="github">
  <diagram name="Page-1" id="edf60f1a-56cd-e834-aa8a-f176f3a09ee4">
    <mxGraphModel dx="952" dy="574" grid="1" gridSize="10" guides="1" tooltips="1" connect="1" arrows="1" fold="1" page="1" pageScale="1" pageWidth="1100" pageHeight="850" background="#ffffff" math="0" shadow="0">
      <root>
        <mxCell id="0" />
        <mxCell id="1" parent="0" />
        <mxCell id="60e70716793133e9-42" style="edgeStyle=orthogonalEdgeStyle;rounded=0;html=1;labelBackgroundColor=none;startSize=5;endArrow=classicThin;endFill=1;endSize=5;jettySize=auto;orthogonalLoop=1;strokeWidth=1;fontFamily=Verdana;fontSize=11;" parent="1" source="60e70716793133e9-13" target="60e70716793133e9-14" edge="1">
          <mxGeometry relative="1" as="geometry" />
        </mxCell>
        <mxCell id="60e70716793133e9-13" value="Меню" style="whiteSpace=wrap;html=1;rounded=0;shadow=1;labelBackgroundColor=none;strokeWidth=1;fontFamily=Verdana;fontSize=11;align=center;" parent="1" vertex="1">
          <mxGeometry x="280" y="40" width="120" height="40" as="geometry" />
        </mxCell>
        <mxCell id="60e70716793133e9-44" value="Case (1)" style="edgeStyle=orthogonalEdgeStyle;rounded=0;html=1;labelBackgroundColor=none;startSize=5;endArrow=classicThin;endFill=1;endSize=5;jettySize=auto;orthogonalLoop=1;strokeWidth=1;fontFamily=Verdana;fontSize=11;entryX=0;entryY=0.5;entryDx=0;entryDy=0;" parent="1" source="60e70716793133e9-14" target="M8-a4sPf3GPhAn8O8Kad-4" edge="1">
          <mxGeometry x="0.5556" y="10" relative="1" as="geometry">
            <mxPoint as="offset" />
            <mxPoint x="400" y="290" as="targetPoint" />
            <Array as="points">
              <mxPoint x="340" y="290" />
            </Array>
          </mxGeometry>
        </mxCell>
        <mxCell id="60e70716793133e9-14" value="Switch (cmd)" style="rhombus;whiteSpace=wrap;html=1;rounded=0;shadow=1;labelBackgroundColor=none;strokeWidth=1;fontFamily=Verdana;fontSize=11;align=center;" parent="1" vertex="1">
          <mxGeometry x="275" y="145" width="130" height="70" as="geometry" />
        </mxCell>
        <mxCell id="60e70716793133e9-30" value="End" style="strokeWidth=1;html=1;shape=mxgraph.flowchart.terminator;whiteSpace=wrap;rounded=0;shadow=1;labelBackgroundColor=none;fontFamily=Verdana;fontSize=11;align=center;" parent="1" vertex="1">
          <mxGeometry x="185" y="520" width="60" height="30" as="geometry" />
        </mxCell>
        <mxCell id="M8-a4sPf3GPhAn8O8Kad-1" value="Case (2)" style="edgeStyle=orthogonalEdgeStyle;rounded=0;html=1;labelBackgroundColor=none;startSize=5;endArrow=classicThin;endFill=1;endSize=5;jettySize=auto;orthogonalLoop=1;strokeWidth=1;fontFamily=Verdana;fontSize=11;entryX=0;entryY=0.5;entryDx=0;entryDy=0;exitX=0.5;exitY=1;exitDx=0;exitDy=0;" parent="1" target="M8-a4sPf3GPhAn8O8Kad-12" edge="1" source="60e70716793133e9-14">
          <mxGeometry x="0.75" y="10" relative="1" as="geometry">
            <mxPoint as="offset" />
            <mxPoint x="340" y="270" as="sourcePoint" />
            <mxPoint x="400" y="345" as="targetPoint" />
            <Array as="points">
              <mxPoint x="340" y="350" />
            </Array>
          </mxGeometry>
        </mxCell>
        <mxCell id="M8-a4sPf3GPhAn8O8Kad-2" value="Case (3)" style="edgeStyle=orthogonalEdgeStyle;rounded=0;html=1;labelBackgroundColor=none;startSize=5;endArrow=classicThin;endFill=1;endSize=5;jettySize=auto;orthogonalLoop=1;strokeWidth=1;fontFamily=Verdana;fontSize=11;entryX=0;entryY=0.5;entryDx=0;entryDy=0;" parent="1" target="M8-a4sPf3GPhAn8O8Kad-24" edge="1">
          <mxGeometry x="0.5556" y="10" relative="1" as="geometry">
            <mxPoint as="offset" />
            <mxPoint x="340" y="340" as="sourcePoint" />
            <mxPoint x="400" y="415" as="targetPoint" />
            <Array as="points">
              <mxPoint x="340" y="415" />
              <mxPoint x="400" y="415" />
            </Array>
          </mxGeometry>
        </mxCell>
        <mxCell id="M8-a4sPf3GPhAn8O8Kad-3" value="Case (4)" style="edgeStyle=orthogonalEdgeStyle;rounded=0;html=1;labelBackgroundColor=none;startSize=5;endArrow=classicThin;endFill=1;endSize=5;jettySize=auto;orthogonalLoop=1;strokeWidth=1;fontFamily=Verdana;fontSize=11;entryX=0.5;entryY=0;entryDx=0;entryDy=0;exitX=0.5;exitY=1;exitDx=0;exitDy=0;entryPerimeter=0;" parent="1" target="60e70716793133e9-30" edge="1" source="60e70716793133e9-14">
          <mxGeometry x="0.3256" y="-20" relative="1" as="geometry">
            <mxPoint x="1" as="offset" />
            <mxPoint x="340" y="350" as="sourcePoint" />
            <mxPoint x="275" y="440" as="targetPoint" />
            <Array as="points">
              <mxPoint x="340" y="440" />
              <mxPoint x="215" y="440" />
            </Array>
          </mxGeometry>
        </mxCell>
        <mxCell id="M8-a4sPf3GPhAn8O8Kad-4" value="Открытие файла&lt;br&gt;для записи" style="whiteSpace=wrap;html=1;rounded=0;shadow=1;labelBackgroundColor=none;strokeWidth=1;fontFamily=Verdana;fontSize=11;align=center;" parent="1" vertex="1">
          <mxGeometry x="405" y="270" width="120" height="40" as="geometry" />
        </mxCell>
        <mxCell id="M8-a4sPf3GPhAn8O8Kad-5" value="" style="endArrow=classic;html=1;fontSize=11;exitX=1;exitY=0.5;exitDx=0;exitDy=0;entryX=0;entryY=0.5;entryDx=0;entryDy=0;" parent="1" source="M8-a4sPf3GPhAn8O8Kad-4" target="M8-a4sPf3GPhAn8O8Kad-6" edge="1">
          <mxGeometry width="50" height="50" relative="1" as="geometry">
            <mxPoint x="350" y="440" as="sourcePoint" />
            <mxPoint x="570" y="290" as="targetPoint" />
          </mxGeometry>
        </mxCell>
        <mxCell id="M8-a4sPf3GPhAn8O8Kad-9" value="" style="edgeStyle=orthogonalEdgeStyle;rounded=0;orthogonalLoop=1;jettySize=auto;html=1;fontSize=11;exitX=1;exitY=0.5;exitDx=0;exitDy=0;" parent="1" source="M8-a4sPf3GPhAn8O8Kad-6" target="M8-a4sPf3GPhAn8O8Kad-8" edge="1">
          <mxGeometry relative="1" as="geometry" />
        </mxCell>
        <mxCell id="M8-a4sPf3GPhAn8O8Kad-6" value="Ввод данных" style="whiteSpace=wrap;html=1;rounded=0;shadow=1;labelBackgroundColor=none;strokeWidth=1;fontFamily=Verdana;fontSize=11;align=center;" parent="1" vertex="1">
          <mxGeometry x="570" y="270" width="120" height="40" as="geometry" />
        </mxCell>
        <mxCell id="M8-a4sPf3GPhAn8O8Kad-7" value="" style="endArrow=classic;html=1;fontSize=11;exitX=1;exitY=0.5;exitDx=0;exitDy=0;entryX=0;entryY=0.5;entryDx=0;entryDy=0;" parent="1" target="M8-a4sPf3GPhAn8O8Kad-8" edge="1">
          <mxGeometry width="50" height="50" relative="1" as="geometry">
            <mxPoint x="690" y="290" as="sourcePoint" />
            <mxPoint x="735" y="290" as="targetPoint" />
          </mxGeometry>
        </mxCell>
        <mxCell id="M8-a4sPf3GPhAn8O8Kad-8" value="Запись в файл" style="whiteSpace=wrap;html=1;rounded=0;shadow=1;labelBackgroundColor=none;strokeWidth=1;fontFamily=Verdana;fontSize=11;align=center;" parent="1" vertex="1">
          <mxGeometry x="735" y="270" width="120" height="40" as="geometry" />
        </mxCell>
        <mxCell id="M8-a4sPf3GPhAn8O8Kad-11" value="" style="endArrow=classic;html=1;fontSize=11;exitX=1;exitY=0.5;exitDx=0;exitDy=0;entryX=1;entryY=0.5;entryDx=0;entryDy=0;" parent="1" source="M8-a4sPf3GPhAn8O8Kad-8" target="60e70716793133e9-13" edge="1">
          <mxGeometry width="50" height="50" relative="1" as="geometry">
            <mxPoint x="560" y="330" as="sourcePoint" />
            <mxPoint x="920" y="180" as="targetPoint" />
            <Array as="points">
              <mxPoint x="920" y="290" />
              <mxPoint x="920" y="60" />
              <mxPoint x="560" y="60" />
            </Array>
          </mxGeometry>
        </mxCell>
        <mxCell id="M8-a4sPf3GPhAn8O8Kad-12" value="Открытие файла&lt;br&gt;для чтения" style="whiteSpace=wrap;html=1;rounded=0;shadow=1;labelBackgroundColor=none;strokeWidth=1;fontFamily=Verdana;fontSize=11;align=center;" parent="1" vertex="1">
          <mxGeometry x="405" y="330" width="120" height="40" as="geometry" />
        </mxCell>
        <mxCell id="M8-a4sPf3GPhAn8O8Kad-13" value="" style="endArrow=classic;html=1;fontSize=11;exitX=1;exitY=0.5;exitDx=0;exitDy=0;entryX=0.5;entryY=0;entryDx=0;entryDy=0;" parent="1" source="M8-a4sPf3GPhAn8O8Kad-12" target="M8-a4sPf3GPhAn8O8Kad-18" edge="1">
          <mxGeometry width="50" height="50" relative="1" as="geometry">
            <mxPoint x="350" y="500" as="sourcePoint" />
            <mxPoint x="570" y="350" as="targetPoint" />
            <Array as="points">
              <mxPoint x="620" y="350" />
            </Array>
          </mxGeometry>
        </mxCell>
        <mxCell id="M8-a4sPf3GPhAn8O8Kad-15" value="Вывод данных" style="whiteSpace=wrap;html=1;rounded=0;shadow=1;labelBackgroundColor=none;strokeWidth=1;fontFamily=Verdana;fontSize=11;align=center;" parent="1" vertex="1">
          <mxGeometry x="560" y="500" width="120" height="40" as="geometry" />
        </mxCell>
        <mxCell id="M8-a4sPf3GPhAn8O8Kad-17" value="Закрыть файл" style="whiteSpace=wrap;html=1;rounded=0;shadow=1;labelBackgroundColor=none;strokeWidth=1;fontFamily=Verdana;fontSize=11;align=center;" parent="1" vertex="1">
          <mxGeometry x="730" y="395" width="120" height="40" as="geometry" />
        </mxCell>
        <mxCell id="M8-a4sPf3GPhAn8O8Kad-18" value="while (!file.eof)" style="rhombus;whiteSpace=wrap;html=1;rounded=0;shadow=1;labelBackgroundColor=none;strokeWidth=1;fontFamily=Verdana;fontSize=11;align=center;" parent="1" vertex="1">
          <mxGeometry x="550" y="380" width="140" height="70" as="geometry" />
        </mxCell>
        <mxCell id="M8-a4sPf3GPhAn8O8Kad-20" value="Yes" style="edgeStyle=orthogonalEdgeStyle;rounded=0;html=1;labelBackgroundColor=none;startSize=5;endArrow=classicThin;endFill=1;endSize=5;jettySize=auto;orthogonalLoop=1;strokeWidth=1;fontFamily=Verdana;fontSize=11;exitX=0.5;exitY=1;exitDx=0;exitDy=0;entryX=0.5;entryY=0;entryDx=0;entryDy=0;" parent="1" source="M8-a4sPf3GPhAn8O8Kad-18" target="M8-a4sPf3GPhAn8O8Kad-15" edge="1">
          <mxGeometry x="-0.2" y="-20" relative="1" as="geometry">
            <mxPoint as="offset" />
            <mxPoint x="350" y="590" as="sourcePoint" />
            <mxPoint x="350" y="630" as="targetPoint" />
          </mxGeometry>
        </mxCell>
        <mxCell id="M8-a4sPf3GPhAn8O8Kad-21" value="No" style="edgeStyle=orthogonalEdgeStyle;rounded=0;html=1;labelBackgroundColor=none;startSize=5;endArrow=classicThin;endFill=1;endSize=5;jettySize=auto;orthogonalLoop=1;strokeWidth=1;fontFamily=Verdana;fontSize=11;exitX=1;exitY=0.5;exitDx=0;exitDy=0;" parent="1" source="M8-a4sPf3GPhAn8O8Kad-18" edge="1">
          <mxGeometry x="-1" y="-10" relative="1" as="geometry">
            <mxPoint as="offset" />
            <mxPoint x="360" y="600" as="sourcePoint" />
            <mxPoint x="730" y="415" as="targetPoint" />
          </mxGeometry>
        </mxCell>
        <mxCell id="M8-a4sPf3GPhAn8O8Kad-23" value="" style="endArrow=none;html=1;fontSize=11;exitX=1;exitY=0.5;exitDx=0;exitDy=0;" parent="1" source="M8-a4sPf3GPhAn8O8Kad-17" edge="1">
          <mxGeometry width="50" height="50" relative="1" as="geometry">
            <mxPoint x="700" y="470" as="sourcePoint" />
            <mxPoint x="920" y="260" as="targetPoint" />
            <Array as="points">
              <mxPoint x="920" y="415" />
            </Array>
          </mxGeometry>
        </mxCell>
        <mxCell id="M8-a4sPf3GPhAn8O8Kad-24" value="Открытие файла&lt;br&gt;для чтения" style="whiteSpace=wrap;html=1;rounded=0;shadow=1;labelBackgroundColor=none;strokeWidth=1;fontFamily=Verdana;fontSize=11;align=center;" parent="1" vertex="1">
          <mxGeometry x="405" y="395" width="120" height="40" as="geometry" />
        </mxCell>
        <mxCell id="M8-a4sPf3GPhAn8O8Kad-25" value="Case (cmd)" style="edgeStyle=orthogonalEdgeStyle;rounded=0;html=1;labelBackgroundColor=none;startSize=5;endArrow=classicThin;endFill=1;endSize=5;jettySize=auto;orthogonalLoop=1;strokeWidth=1;fontFamily=Verdana;fontSize=11;entryX=0;entryY=0.5;entryDx=0;entryDy=0;" parent="1" source="M8-a4sPf3GPhAn8O8Kad-26" target="M8-a4sPf3GPhAn8O8Kad-39" edge="1">
          <mxGeometry x="0.5556" y="10" relative="1" as="geometry">
            <mxPoint as="offset" />
            <mxPoint x="530" y="695" as="targetPoint" />
            <Array as="points">
              <mxPoint x="465" y="700" />
            </Array>
          </mxGeometry>
        </mxCell>
        <mxCell id="M8-a4sPf3GPhAn8O8Kad-26" value="Switch (cmd)" style="rhombus;whiteSpace=wrap;html=1;rounded=0;shadow=1;labelBackgroundColor=none;strokeWidth=1;fontFamily=Verdana;fontSize=11;align=center;" parent="1" vertex="1">
          <mxGeometry x="400" y="550" width="130" height="70" as="geometry" />
        </mxCell>
        <mxCell id="M8-a4sPf3GPhAn8O8Kad-30" value="" style="endArrow=classic;html=1;fontSize=11;entryX=0.5;entryY=0;entryDx=0;entryDy=0;exitX=0.5;exitY=1;exitDx=0;exitDy=0;" parent="1" source="M8-a4sPf3GPhAn8O8Kad-24" target="M8-a4sPf3GPhAn8O8Kad-26" edge="1">
          <mxGeometry width="50" height="50" relative="1" as="geometry">
            <mxPoint x="470" y="440" as="sourcePoint" />
            <mxPoint x="620" y="550" as="targetPoint" />
          </mxGeometry>
        </mxCell>
        <mxCell id="M8-a4sPf3GPhAn8O8Kad-37" value="Case (6)" style="edgeStyle=orthogonalEdgeStyle;rounded=0;html=1;labelBackgroundColor=none;startSize=5;endArrow=none;endFill=0;endSize=5;jettySize=auto;orthogonalLoop=1;strokeWidth=1;fontFamily=Verdana;fontSize=11;exitX=0.5;exitY=1;exitDx=0;exitDy=0;" parent="1" edge="1" source="M8-a4sPf3GPhAn8O8Kad-26">
          <mxGeometry x="0.1654" y="45" relative="1" as="geometry">
            <mxPoint as="offset" />
            <mxPoint x="464.9999999999998" y="909.9999999999998" as="sourcePoint" />
            <mxPoint x="710" y="1010" as="targetPoint" />
            <Array as="points">
              <mxPoint x="465" y="1010" />
            </Array>
          </mxGeometry>
        </mxCell>
        <mxCell id="M8-a4sPf3GPhAn8O8Kad-39" value="Открытие файла&lt;br&gt;для чтения" style="whiteSpace=wrap;html=1;rounded=0;shadow=1;labelBackgroundColor=none;strokeWidth=1;fontFamily=Verdana;fontSize=11;align=center;" parent="1" vertex="1">
          <mxGeometry x="550" y="680" width="120" height="40" as="geometry" />
        </mxCell>
        <mxCell id="M8-a4sPf3GPhAn8O8Kad-45" value="Закрыть файл" style="whiteSpace=wrap;html=1;rounded=0;shadow=1;labelBackgroundColor=none;strokeWidth=1;fontFamily=Verdana;fontSize=11;align=center;" parent="1" vertex="1">
          <mxGeometry x="900" y="685" width="120" height="40" as="geometry" />
        </mxCell>
        <mxCell id="M8-a4sPf3GPhAn8O8Kad-46" value="while (!file.eof)" style="rhombus;whiteSpace=wrap;html=1;rounded=0;shadow=1;labelBackgroundColor=none;strokeWidth=1;fontFamily=Verdana;fontSize=11;align=center;" parent="1" vertex="1">
          <mxGeometry x="720" y="670" width="140" height="70" as="geometry" />
        </mxCell>
        <mxCell id="M8-a4sPf3GPhAn8O8Kad-47" value="Yes" style="edgeStyle=orthogonalEdgeStyle;rounded=0;html=1;labelBackgroundColor=none;startSize=5;endArrow=classicThin;endFill=1;endSize=5;jettySize=auto;orthogonalLoop=1;strokeWidth=1;fontFamily=Verdana;fontSize=11;exitX=0.5;exitY=1;exitDx=0;exitDy=0;entryX=0.5;entryY=0;entryDx=0;entryDy=0;" parent="1" source="M8-a4sPf3GPhAn8O8Kad-46" target="M8-a4sPf3GPhAn8O8Kad-52" edge="1">
          <mxGeometry x="-0.2" y="-20" relative="1" as="geometry">
            <mxPoint as="offset" />
            <mxPoint x="520" y="880" as="sourcePoint" />
            <mxPoint x="790" y="789.9999999999998" as="targetPoint" />
          </mxGeometry>
        </mxCell>
        <mxCell id="M8-a4sPf3GPhAn8O8Kad-48" value="No" style="edgeStyle=orthogonalEdgeStyle;rounded=0;html=1;labelBackgroundColor=none;startSize=5;endArrow=classicThin;endFill=1;endSize=5;jettySize=auto;orthogonalLoop=1;strokeWidth=1;fontFamily=Verdana;fontSize=11;exitX=1;exitY=0.5;exitDx=0;exitDy=0;" parent="1" source="M8-a4sPf3GPhAn8O8Kad-46" edge="1">
          <mxGeometry x="-1" y="-10" relative="1" as="geometry">
            <mxPoint as="offset" />
            <mxPoint x="530" y="890" as="sourcePoint" />
            <mxPoint x="900" y="705" as="targetPoint" />
          </mxGeometry>
        </mxCell>
        <mxCell id="M8-a4sPf3GPhAn8O8Kad-49" value="" style="endArrow=classic;html=1;fontSize=11;entryX=0.5;entryY=0;entryDx=0;entryDy=0;exitX=1;exitY=0.5;exitDx=0;exitDy=0;" parent="1" source="M8-a4sPf3GPhAn8O8Kad-39" target="M8-a4sPf3GPhAn8O8Kad-46" edge="1">
          <mxGeometry width="50" height="50" relative="1" as="geometry">
            <mxPoint x="630" y="810" as="sourcePoint" />
            <mxPoint x="680" y="760" as="targetPoint" />
            <Array as="points">
              <mxPoint x="690" y="700" />
              <mxPoint x="690" y="620" />
              <mxPoint x="790" y="620" />
            </Array>
          </mxGeometry>
        </mxCell>
        <mxCell id="M8-a4sPf3GPhAn8O8Kad-51" value="Вывод данных" style="whiteSpace=wrap;html=1;rounded=0;shadow=1;labelBackgroundColor=none;strokeWidth=1;fontFamily=Verdana;fontSize=11;align=center;" parent="1" vertex="1">
          <mxGeometry x="730" y="910" width="120" height="40" as="geometry" />
        </mxCell>
        <mxCell id="M8-a4sPf3GPhAn8O8Kad-52" value="strcmp(inputStr, film.search)&lt;br&gt;== 0" style="rhombus;whiteSpace=wrap;html=1;rounded=0;shadow=1;labelBackgroundColor=none;strokeWidth=1;fontFamily=Verdana;fontSize=11;align=center;" parent="1" vertex="1">
          <mxGeometry x="680" y="790" width="220" height="70" as="geometry" />
        </mxCell>
        <mxCell id="M8-a4sPf3GPhAn8O8Kad-54" value="" style="endArrow=none;html=1;fontSize=11;exitX=1;exitY=0.5;exitDx=0;exitDy=0;" parent="1" source="M8-a4sPf3GPhAn8O8Kad-45" edge="1">
          <mxGeometry width="50" height="50" relative="1" as="geometry">
            <mxPoint x="730" y="780" as="sourcePoint" />
            <mxPoint x="920" y="370" as="targetPoint" />
            <Array as="points">
              <mxPoint x="1070" y="705" />
              <mxPoint x="1070" y="580" />
              <mxPoint x="920" y="580" />
            </Array>
          </mxGeometry>
        </mxCell>
        <mxCell id="M8-a4sPf3GPhAn8O8Kad-55" value="Yes" style="edgeStyle=orthogonalEdgeStyle;rounded=0;html=1;labelBackgroundColor=none;startSize=5;endArrow=classicThin;endFill=1;endSize=5;jettySize=auto;orthogonalLoop=1;strokeWidth=1;fontFamily=Verdana;fontSize=11;exitX=0.5;exitY=1;exitDx=0;exitDy=0;" parent="1" source="M8-a4sPf3GPhAn8O8Kad-52" target="M8-a4sPf3GPhAn8O8Kad-51" edge="1">
          <mxGeometry x="-0.2" y="-20" relative="1" as="geometry">
            <mxPoint as="offset" />
            <mxPoint x="800" y="750" as="sourcePoint" />
            <mxPoint x="800" y="800" as="targetPoint" />
          </mxGeometry>
        </mxCell>
        <mxCell id="M8-a4sPf3GPhAn8O8Kad-56" value="No" style="edgeStyle=orthogonalEdgeStyle;rounded=0;html=1;labelBackgroundColor=none;startSize=5;endArrow=classicThin;endFill=1;endSize=5;jettySize=auto;orthogonalLoop=1;strokeWidth=1;fontFamily=Verdana;fontSize=11;exitX=0;exitY=0.5;exitDx=0;exitDy=0;entryX=0.5;entryY=0;entryDx=0;entryDy=0;" parent="1" source="M8-a4sPf3GPhAn8O8Kad-52" target="M8-a4sPf3GPhAn8O8Kad-46" edge="1">
          <mxGeometry x="-1" y="-10" relative="1" as="geometry">
            <mxPoint as="offset" />
            <mxPoint x="869.9999999999998" y="715" as="sourcePoint" />
            <mxPoint x="910" y="715" as="targetPoint" />
            <Array as="points">
              <mxPoint x="670" y="825" />
              <mxPoint x="670" y="765" />
              <mxPoint x="710" y="765" />
              <mxPoint x="710" y="650" />
              <mxPoint x="790" y="650" />
            </Array>
          </mxGeometry>
        </mxCell>
        <mxCell id="M8-a4sPf3GPhAn8O8Kad-127" value="" style="endArrow=none;html=1;fontSize=11;exitX=1;exitY=0.5;exitDx=0;exitDy=0;" parent="1" edge="1">
          <mxGeometry width="50" height="50" relative="1" as="geometry">
            <mxPoint x="710" y="1010" as="sourcePoint" />
            <mxPoint x="1070" y="638.3333333333334" as="targetPoint" />
            <Array as="points">
              <mxPoint x="1070" y="1010" />
            </Array>
          </mxGeometry>
        </mxCell>
      </root>
    </mxGraphModel>
  </diagram>
</mxfile>
